<mxfile host="65bd71144e">
    <diagram id="3OPuvz8xCCWNlnOVTg_f" name="Page-1">
        <mxGraphModel dx="1037" dy="330" grid="1" gridSize="10" guides="1" tooltips="1" connect="1" arrows="1" fold="1" page="1" pageScale="1" pageWidth="850" pageHeight="1100" math="0" shadow="0">
            <root>
                <mxCell id="0"/>
                <mxCell id="1" parent="0"/>
                <mxCell id="48" style="edgeStyle=none;rounded=0;orthogonalLoop=1;jettySize=auto;html=1;" parent="1" source="2" target="43" edge="1">
                    <mxGeometry relative="1" as="geometry"/>
                </mxCell>
                <mxCell id="2" value="mydomain.com" style="rounded=0;whiteSpace=wrap;html=1;" parent="1" vertex="1">
                    <mxGeometry x="550" y="600" width="120" height="80" as="geometry"/>
                </mxCell>
                <mxCell id="47" style="edgeStyle=none;rounded=0;orthogonalLoop=1;jettySize=auto;html=1;" parent="1" source="3" target="2" edge="1">
                    <mxGeometry relative="1" as="geometry"/>
                </mxCell>
                <mxCell id="3" value="Client" style="rounded=0;whiteSpace=wrap;html=1;" parent="1" vertex="1">
                    <mxGeometry x="80" y="600" width="120" height="80" as="geometry"/>
                </mxCell>
                <mxCell id="15" style="edgeStyle=none;rounded=0;orthogonalLoop=1;jettySize=auto;html=1;" parent="1" source="12" target="14" edge="1">
                    <mxGeometry relative="1" as="geometry"/>
                </mxCell>
                <mxCell id="12" value="Private" style="aspect=fixed;html=1;points=[];align=center;image;fontSize=12;image=img/lib/mscae/Key.svg;" parent="1" vertex="1">
                    <mxGeometry x="174.5" y="160" width="31" height="50" as="geometry"/>
                </mxCell>
                <mxCell id="17" style="edgeStyle=none;rounded=0;orthogonalLoop=1;jettySize=auto;html=1;" parent="1" source="13" target="16" edge="1">
                    <mxGeometry relative="1" as="geometry"/>
                </mxCell>
                <mxCell id="34" style="edgeStyle=none;rounded=0;orthogonalLoop=1;jettySize=auto;html=1;" parent="1" source="13" target="31" edge="1">
                    <mxGeometry relative="1" as="geometry"/>
                </mxCell>
                <mxCell id="13" value="Public Key" style="aspect=fixed;html=1;points=[];align=center;image;fontSize=12;image=img/lib/mscae/Key_Vaults.svg;" parent="1" vertex="1">
                    <mxGeometry x="356" y="150" width="48" height="50" as="geometry"/>
                </mxCell>
                <mxCell id="14" value="Message" style="rounded=0;whiteSpace=wrap;html=1;" parent="1" vertex="1">
                    <mxGeometry x="130" y="240" width="120" height="60" as="geometry"/>
                </mxCell>
                <mxCell id="16" value="Message X Private Key" style="rounded=0;whiteSpace=wrap;html=1;" parent="1" vertex="1">
                    <mxGeometry x="320" y="240" width="120" height="60" as="geometry"/>
                </mxCell>
                <mxCell id="18" value="Signing" style="text;html=1;strokeColor=none;fillColor=none;align=center;verticalAlign=middle;whiteSpace=wrap;rounded=0;" parent="1" vertex="1">
                    <mxGeometry x="260" y="190" width="40" height="20" as="geometry"/>
                </mxCell>
                <mxCell id="21" style="edgeStyle=none;rounded=0;orthogonalLoop=1;jettySize=auto;html=1;" parent="1" source="22" target="24" edge="1">
                    <mxGeometry relative="1" as="geometry"/>
                </mxCell>
                <mxCell id="22" value="Public Key" style="aspect=fixed;html=1;points=[];align=center;image;fontSize=12;image=img/lib/mscae/Key_Vaults.svg;" parent="1" vertex="1">
                    <mxGeometry x="166" y="340" width="48" height="50" as="geometry"/>
                </mxCell>
                <mxCell id="24" value="Message" style="rounded=0;whiteSpace=wrap;html=1;" parent="1" vertex="1">
                    <mxGeometry x="130" y="440" width="120" height="60" as="geometry"/>
                </mxCell>
                <mxCell id="25" value="Encryption" style="text;html=1;strokeColor=none;fillColor=none;align=center;verticalAlign=middle;whiteSpace=wrap;rounded=0;" parent="1" vertex="1">
                    <mxGeometry x="260" y="320" width="40" height="20" as="geometry"/>
                </mxCell>
                <mxCell id="26" value="Private" style="aspect=fixed;html=1;points=[];align=center;image;fontSize=12;image=img/lib/mscae/Key.svg;" parent="1" vertex="1">
                    <mxGeometry x="364.5" y="360" width="31" height="50" as="geometry"/>
                </mxCell>
                <mxCell id="27" value="Message" style="rounded=0;whiteSpace=wrap;html=1;" parent="1" vertex="1">
                    <mxGeometry x="320" y="440" width="120" height="60" as="geometry"/>
                </mxCell>
                <mxCell id="28" value="Certificate Authorities" style="rounded=0;whiteSpace=wrap;html=1;" parent="1" vertex="1">
                    <mxGeometry x="140" y="20" width="120" height="60" as="geometry"/>
                </mxCell>
                <mxCell id="29" value="" style="aspect=fixed;html=1;points=[];align=center;image;fontSize=12;image=img/lib/mscae/Key_Vaults.svg;" parent="1" vertex="1">
                    <mxGeometry x="290" y="20" width="48" height="50" as="geometry"/>
                </mxCell>
                <mxCell id="33" style="edgeStyle=none;rounded=0;orthogonalLoop=1;jettySize=auto;html=1;" parent="1" source="31" target="29" edge="1">
                    <mxGeometry relative="1" as="geometry"/>
                </mxCell>
                <mxCell id="31" value="" style="aspect=fixed;html=1;points=[];align=center;image;fontSize=12;image=img/lib/mscae/Key_Vaults.svg;" parent="1" vertex="1">
                    <mxGeometry x="290" y="105" width="48" height="50" as="geometry"/>
                </mxCell>
                <mxCell id="35" value="Certificate Chain" style="shape=curlyBracket;whiteSpace=wrap;html=1;rounded=1;flipH=1;" parent="1" vertex="1">
                    <mxGeometry x="440" y="20" width="20" height="180" as="geometry"/>
                </mxCell>
                <mxCell id="36" value="https&lt;br&gt;HTTP over TLS over TCP&lt;br&gt;" style="text;html=1;strokeColor=none;fillColor=none;align=center;verticalAlign=middle;whiteSpace=wrap;rounded=0;" parent="1" vertex="1">
                    <mxGeometry x="190" y="540" width="320" height="50" as="geometry"/>
                </mxCell>
                <mxCell id="37" value="Let's Encrypt" style="rounded=0;whiteSpace=wrap;html=1;" parent="1" vertex="1">
                    <mxGeometry x="550" y="440" width="130" height="70" as="geometry"/>
                </mxCell>
                <mxCell id="38" value="Private" style="aspect=fixed;html=1;points=[];align=center;image;fontSize=12;image=img/lib/mscae/Key.svg;" parent="1" vertex="1">
                    <mxGeometry x="680" y="600" width="31" height="50" as="geometry"/>
                </mxCell>
                <mxCell id="41" style="edgeStyle=none;rounded=0;orthogonalLoop=1;jettySize=auto;html=1;" parent="1" source="39" target="40" edge="1">
                    <mxGeometry relative="1" as="geometry"/>
                </mxCell>
                <mxCell id="39" value="Public Key" style="aspect=fixed;html=1;points=[];align=center;image;fontSize=12;image=img/lib/mscae/Key_Vaults.svg;" parent="1" vertex="1">
                    <mxGeometry x="490" y="580" width="48" height="50" as="geometry"/>
                </mxCell>
                <mxCell id="40" value="Public Key" style="aspect=fixed;html=1;points=[];align=center;image;fontSize=12;image=img/lib/mscae/Key_Vaults.svg;" parent="1" vertex="1">
                    <mxGeometry x="490" y="450" width="48" height="50" as="geometry"/>
                </mxCell>
                <mxCell id="46" style="edgeStyle=none;rounded=0;orthogonalLoop=1;jettySize=auto;html=1;" parent="1" source="43" target="45" edge="1">
                    <mxGeometry relative="1" as="geometry"/>
                </mxCell>
                <mxCell id="43" value="" style="aspect=fixed;html=1;points=[];align=center;image;fontSize=12;image=img/lib/mscae/Key_Vaults.svg;" parent="1" vertex="1">
                    <mxGeometry x="166" y="690" width="48" height="50" as="geometry"/>
                </mxCell>
                <mxCell id="44" value="" style="aspect=fixed;html=1;points=[];align=center;image;fontSize=12;image=img/lib/mscae/Key.svg;" parent="1" vertex="1">
                    <mxGeometry x="50" y="690" width="31" height="50" as="geometry"/>
                </mxCell>
                <mxCell id="55" style="rounded=0;orthogonalLoop=1;jettySize=auto;html=1;" edge="1" parent="1" source="45" target="54">
                    <mxGeometry relative="1" as="geometry"/>
                </mxCell>
                <mxCell id="45" value="Company Root Certificate" style="aspect=fixed;html=1;points=[];align=center;image;fontSize=12;image=img/lib/mscae/Key_Vaults.svg;" parent="1" vertex="1">
                    <mxGeometry x="490" y="760" width="48" height="50" as="geometry"/>
                </mxCell>
                <mxCell id="49" value="Handshake" style="text;html=1;strokeColor=none;fillColor=none;align=center;verticalAlign=middle;whiteSpace=wrap;rounded=0;" parent="1" vertex="1">
                    <mxGeometry x="316" y="660" width="94" height="20" as="geometry"/>
                </mxCell>
                <mxCell id="50" value="CA" style="ellipse;whiteSpace=wrap;html=1;" vertex="1" parent="1">
                    <mxGeometry x="500" y="410" width="50" height="50" as="geometry"/>
                </mxCell>
                <mxCell id="51" value="CA" style="ellipse;whiteSpace=wrap;html=1;" vertex="1" parent="1">
                    <mxGeometry x="510" y="750" width="50" height="40" as="geometry"/>
                </mxCell>
                <mxCell id="52" value="Server" style="ellipse;whiteSpace=wrap;html=1;" vertex="1" parent="1">
                    <mxGeometry x="520" y="570" width="50" height="40" as="geometry"/>
                </mxCell>
                <mxCell id="53" value="Client" style="ellipse;whiteSpace=wrap;html=1;" vertex="1" parent="1">
                    <mxGeometry x="164" y="720" width="50" height="40" as="geometry"/>
                </mxCell>
                <mxCell id="54" value="Company Root Certificate" style="aspect=fixed;html=1;points=[];align=center;image;fontSize=12;image=img/lib/mscae/Key_Vaults.svg;" vertex="1" parent="1">
                    <mxGeometry x="680" y="820" width="48" height="50" as="geometry"/>
                </mxCell>
            </root>
        </mxGraphModel>
    </diagram>
</mxfile>